<?xml version="1.0" standalone="no"?>
<!DOCTYPE svg PUBLIC "-//W3C//DTD SVG 20010904//EN"
 "http://www.w3.org/TR/2001/REC-SVG-20010904/DTD/svg10.dtd">
<svg version="1.0" xmlns="http://www.w3.org/2000/svg"
 width="256.000000pt" height="186.000000pt" viewBox="0 0 256.000000 186.000000"
 preserveAspectRatio="xMidYMid meet">

<g transform="translate(0.000000,186.000000) scale(0.100000,-0.100000)"
fill="#000000" stroke="none">
<path d="M2433 1833 c-7 -3 -13 -15 -13 -29 0 -13 -13 -52 -30 -86 -99 -211
-112 -240 -107 -259 3 -11 2 -33 -3 -49 -10 -36 2 -40 18 -5 6 14 16 25 22 25
5 0 10 7 10 15 0 8 6 15 13 15 13 0 60 86 57 104 -1 5 2 12 7 15 5 3 26 41 46
85 21 43 47 86 59 96 25 20 18 50 -12 50 -11 0 -20 4 -20 9 0 11 -30 19 -47
14z"/>
<path d="M905 1710 c-225 -52 -391 -143 -545 -299 -112 -114 -187 -244 -205
-356 -6 -38 -5 -37 19 18 43 103 89 169 181 262 155 157 301 238 550 306 48
13 338 20 375 9 9 -3 14 1 12 8 -1 8 2 11 8 7 5 -3 10 -1 10 4 0 6 10 11 23
12 17 0 14 3 -13 13 -19 7 -41 11 -48 8 -7 -2 -19 1 -27 8 -8 6 -19 9 -24 6
-5 -4 -12 -2 -16 4 -10 17 -212 10 -300 -10z"/>
<path d="M1311 1652 c-7 -13 -6 -19 2 -20 7 0 23 -3 37 -6 23 -6 23 -5 -2 5
-17 6 -25 15 -21 25 8 20 -5 17 -16 -4z"/>
<path d="M1525 1540 c3 -5 8 -10 11 -10 2 0 4 5 4 10 0 6 -5 10 -11 10 -5 0
-7 -4 -4 -10z"/>
<path d="M1240 1473 c-14 -3 -149 -29 -300 -59 -212 -42 -295 -54 -367 -54
-51 0 -93 -3 -93 -6 0 -5 74 -90 156 -181 20 -21 29 -23 124 -23 l102 0 -54
-62 c-29 -35 -69 -82 -87 -106 l-33 -42 -162 2 -161 3 0 100 1 100 57 74 c61
79 63 83 45 98 -10 8 -32 -14 -85 -83 -59 -76 -69 -94 -53 -94 38 0 35 -6
-102 -185 -38 -48 -68 -95 -68 -103 0 -8 14 -44 32 -81 80 -163 257 -271 445
-271 l63 0 0 114 0 114 -167 6 c-231 10 -252 24 -38 26 248 2 257 4 302 65 21
28 90 117 153 199 63 82 133 172 154 200 21 28 75 97 118 154 81 104 81 106
18 95z"/>
<path d="M1301 1420 l-22 -30 142 -208 c78 -114 151 -219 162 -234 l19 -26
-45 -59 c-55 -72 -137 -148 -242 -228 -44 -32 -82 -63 -83 -67 -2 -5 -8 -6
-13 -2 -5 3 -9 2 -8 -3 5 -19 -15 -42 -41 -48 -28 -6 -28 -6 -12 -38 8 -18 20
-36 26 -40 8 -6 7 -10 -1 -14 -16 -6 -18 -103 -3 -103 16 0 13 -220 -2 -220
-7 0 -5 -5 5 -11 9 -5 17 -16 17 -24 0 -35 240 19 430 97 126 53 291 150 400
236 61 49 187 171 211 203 l19 27 -182 128 c-178 126 -225 158 -341 238 -55
38 -58 38 -72 20 -17 -23 -13 -26 -102 101 -144 207 -225 320 -232 328 -4 4
-17 -6 -30 -23z"/>
<path d="M1727 1263 c-41 -21 -75 -102 -62 -144 5 -16 483 -346 647 -447 46
-28 74 -22 123 25 43 42 39 57 -5 19 -79 -66 -135 -1 -96 111 17 49 9 66 -46
94 -22 11 -50 29 -61 39 -11 11 -36 27 -56 36 -20 9 -49 29 -66 44 -16 15 -66
47 -110 70 -44 23 -89 50 -100 60 -11 10 -45 31 -75 46 -58 30 -72 43 -64 56
6 10 6 10 -29 -9z"/>
<path d="M440 1125 c0 -20 5 -25 25 -25 20 0 25 5 25 25 0 20 -5 25 -25 25
-20 0 -25 -5 -25 -25z"/>
<path d="M520 1125 c0 -20 5 -25 25 -25 20 0 25 5 25 25 0 20 -5 25 -25 25
-20 0 -25 -5 -25 -25z"/>
<path d="M100 1125 c-7 -9 -8 -15 -2 -15 5 0 12 7 16 15 3 8 4 15 2 15 -2 0
-9 -7 -16 -15z"/>
<path d="M59 1054 c-35 -77 -52 -179 -46 -279 6 -98 34 -228 48 -219 5 3 6 -1
4 -9 -10 -24 63 -160 90 -171 8 -3 15 -10 15 -15 0 -6 10 -21 23 -34 27 -29
67 -42 67 -21 0 8 5 14 10 14 6 0 10 9 10 19 0 11 6 21 13 24 8 3 4 11 -12 26
-27 24 -34 96 -10 113 11 7 11 11 2 15 -7 2 -13 14 -13 24 0 13 4 18 13 13 6
-4 -9 16 -35 44 -27 28 -48 56 -48 62 0 6 -5 8 -11 5 -6 -4 -9 -1 -8 6 2 8 -5
30 -15 49 -44 83 -65 171 -62 263 2 51 -1 87 -6 87 -6 0 -8 7 -4 15 13 35 -5
11 -25 -31z"/>
<path d="M440 1045 c0 -20 5 -25 25 -25 20 0 25 5 25 25 0 20 -5 25 -25 25
-20 0 -25 -5 -25 -25z"/>
<path d="M520 1045 c0 -20 5 -25 25 -25 20 0 25 5 25 25 0 20 -5 25 -25 25
-20 0 -25 -5 -25 -25z"/>
<path d="M1138 983 c-2 -5 -4 -26 -3 -48 l0 -40 48 -3 47 -3 0 50 0 51 -44 0
c-25 0 -46 -3 -48 -7z"/>
<path d="M1260 940 l0 -50 50 0 50 0 0 50 0 50 -50 0 -50 0 0 -50z"/>
<path d="M1137 853 c-4 -3 -7 -24 -7 -45 l0 -38 50 0 50 0 0 45 0 45 -43 0
c-24 0 -47 -3 -50 -7z"/>
<path d="M1260 815 l0 -45 50 0 50 0 0 45 0 45 -50 0 -50 0 0 -45z"/>
<path d="M2370 821 c-5 -11 -10 -30 -9 -43 1 -18 3 -17 8 8 4 17 11 36 15 42
4 7 5 12 2 12 -3 0 -10 -9 -16 -19z"/>
<path d="M2415 780 c3 -5 13 -10 21 -10 8 0 14 5 14 10 0 6 -9 10 -21 10 -11
0 -17 -4 -14 -10z"/>
</g>
</svg>
